<svg xmlns="http://www.w3.org/2000/svg" viewBox="0 0 512 512" role="img" aria-label="GELD VERSTEHEN">
  <defs>
    <linearGradient id="stem" x1="0" y1="0" x2="0" y2="1">
      <stop offset="0" stop-color="#8BC34A"/>
      <stop offset="1" stop-color="#F5C518"/>
    </linearGradient>
  </defs>
  <!-- Hintergrund (Marken-Blau) -->
  <rect width="512" height="512" fill="#1E73BE"/>
  <!-- Münze: Seite (3D) -->
  <path d="M106 330 a150 52 0 0 0 300 0 v34 a150 52 0 0 1 -300 0 z" fill="#E29200"/>
  <!-- Münze: Oberseite -->
  <ellipse cx="256" cy="330" rx="150" ry="52" fill="#F6C324"/>
  <ellipse cx="256" cy="330" rx="112" ry="36" fill="none" stroke="#E29200" stroke-width="10"/>
  <!-- Stängel -->
  <path d="M250 330 C247 270 250 232 262 196 l16 6 C270 236 266 272 268 330 z" fill="url(#stem)"/>
  <!-- Blatt rechts (groß) -->
  <path d="M268 214 C300 150 360 118 410 116 C404 176 366 232 300 244 C286 236 274 226 268 214 Z" fill="#8BC34A"/>
  <path d="M300 244 C330 200 366 168 402 140" fill="none" stroke="#6BA439" stroke-width="8" stroke-linecap="round"/>
  <!-- Blatt links (klein) -->
  <path d="M250 236 C214 196 158 190 120 200 C136 246 182 276 236 262 C242 254 247 245 250 236 Z" fill="#9CCC65"/>
  <path d="M236 262 C202 240 168 224 132 216" fill="none" stroke="#6BA439" stroke-width="7" stroke-linecap="round"/>
</svg>
